# xmcd CD Database Entry
#
# Track frame offsets:
# 182
# 18267
# 37512
# 48857
# 74407
# 88582
# 118947
# 135137
# 166872
# 180125
# 197342
# 213617
# 230955
# 242937
#
# Disc length: 3511 seconds
#
# Revision: 3
# Processed by: cddbd v1.4PL0 Copyright (c) Steve Scherf et al.
# Submitted via: tcd 2.0b
#
DISCID=af0db50e
DTITLE=Jewel - Pieces of You
DYEAR=2000
DGENRE=Classical
TTITLE0=Who Will Save Your Soul
TTITLE1=Pieces of You
TTITLE2=Little Sister
TTITLE3=Foolish Games
TTITLE4=Near You Always
TTITLE5=Painters
TTITLE6=Morning Song
TTITLE7=Adrian
TTITLE8=I'm Sensitive
TTITLE9=You Were Meant For Me
TTITLE10=Don't
TTITLE11=Daddy
TTITLE12=Angel Standing By
TTITLE13=Amen
EXTD=\nYEAR: 2000  ID3G:  32
EXTT0=
EXTT1=
EXTT2=
EXTT3=
EXTT4=
EXTT5=
EXTT6=
EXTT7=
EXTT8=
EXTT9=
EXTT10=
EXTT11=
EXTT12=
EXTT13=
PLAYORDER=
